<svg width="39" height="38" viewBox="0 0 39 38" fill="none" xmlns="http://www.w3.org/2000/svg">
<path d="M15.9017 0.335938H0.802734V37.6686H23.4514V30.2023V22.7356H15.9017V30.2023H8.35238V22.7356V15.269V7.80247H15.9017V15.269H23.4514V7.80247V0.335938H15.9017Z" fill="#359BC2"/>
<path d="M27.3651 34.5103L27.1535 34.2168V32.8612L27.3651 34.5103ZM27.9096 36.7165L27.1535 36.4687V34.3707L27.4009 34.7144L27.9096 36.7165ZM27.0633 32.7953V34.092L26.3068 33.0428L25.0831 33.4436L25.8392 32.3948L25.0831 31.3458L26.3068 31.7465L27.0633 30.6977V31.9942V32.7953ZM27.0633 36.4392L24.9932 35.7615L24.2024 34.6649L24.9932 33.5684L26.2725 33.1497L27.0633 34.2462V36.4392ZM27.0633 37.3359L26.3668 37.5639L26.3068 37.5834L25.6478 36.6692L25.0831 35.8862L27.0633 36.5345V37.3359ZM25.2576 37.9268L24.1465 38.2904L22.8671 37.8718V36.5163L23.6579 35.4199L24.9372 35.8387L25.3322 36.3859L26.2169 37.6129L25.2576 37.9268ZM22.7769 36.4867L22.7062 36.5853L21.4977 38.2612L20.2183 36.4867V35.1317L21.4977 34.7125L22.7769 35.1317V36.4867ZM20.1284 35.0657V36.362L19.3719 35.3134L18.1482 35.7137L18.9043 34.6649L18.1482 33.6163L19.3719 34.0167L20.1284 32.9679V34.2642L21.3521 34.6649L20.1284 35.0657ZM20.1284 37.8718L19.3312 38.1325L18.8487 38.2904L16.7786 37.6129L17.832 36.152L18.058 35.8387L19.3374 35.4199L20.1284 36.5163V37.8718ZM16.6886 37.5834L15.9322 37.3359V36.5345L17.9124 35.8862L16.9939 37.1601L16.6886 37.5834ZM15.8422 34.2168L15.6305 34.5103L14.5628 35.9909L13.4952 34.5103L13.2832 34.2168V32.8612L14.5628 32.4423L14.695 32.4856L15.8422 32.8612V34.2168ZM15.8422 36.4687L15.0859 36.7165L14.6184 36.0679L15.1575 35.3204L15.8422 34.3707V36.4687ZM14.0397 36.7165L13.2832 36.4687V34.3707L13.5309 34.7144L14.5072 36.0679L14.0397 36.7165ZM13.1934 32.7953V34.092L12.4369 33.0428L11.2131 33.4436L11.9694 32.3948L11.2131 31.3458L12.4369 31.7465L13.1934 30.6977V31.9942L14.4171 32.3948L13.1934 32.7953ZM13.1934 36.4392L11.123 35.7615L10.3325 34.6649L11.123 33.5684L12.4026 33.1497L13.1934 34.2462V36.4392ZM13.1934 37.3359L12.4369 37.5834L11.7779 36.6692L11.2131 35.8862L13.1934 36.5345V37.3359ZM11.3877 37.9268L10.2767 38.2904L8.99728 37.8718V36.5163L9.78808 35.4199L11.0676 35.8387L11.4621 36.3859L12.347 37.6129L11.3877 37.9268ZM8.90729 36.4867L8.83627 36.5853L7.62784 38.2612L6.34837 36.4867V35.1317L7.62784 34.7125L8.90729 35.1317V36.4867ZM6.25826 35.0657V36.362L5.502 35.3134L4.27803 35.7137L5.03452 34.6649L4.27803 33.6163L5.502 34.0167L6.25826 32.9679V34.2642L7.48225 34.6649L7.25994 34.7379L6.25826 35.0657ZM6.25826 37.8718L4.97881 38.2904L3.86782 37.9268L2.90856 37.6129L3.79349 36.3859L4.18812 35.8387L5.46757 35.4199L6.25826 36.5163V37.8718ZM2.81868 37.5834L2.06232 37.3359V36.5345L4.04245 35.8862L3.65478 36.4239L2.81868 37.5834ZM0.838431 32.3948L2.06232 31.9942V30.6973L2.81868 31.7465L4.04245 31.3458L3.7905 31.6954L3.2862 32.3948L3.7888 33.0914L4.04245 33.4436L2.81868 33.0428L2.06232 34.092V32.7953L0.838431 32.3948ZM1.72462 30.075L0.748437 28.7215L1.76211 27.3158L1.97232 27.0244V28.3207L3.1962 28.7215L1.97232 29.1221V30.4186L1.72462 30.075ZM0.838431 25.0484L1.06763 24.9731L2.06232 24.6475V23.3511L2.81298 24.3917L2.81868 24.4L3.64734 24.1287C3.76204 24.0911 3.89296 24.0481 4.04269 23.9992L3.2862 25.0484L4.04245 26.0971L2.81868 25.6964L2.17588 26.5877L2.06232 26.7454V25.4488L0.838431 25.0484ZM0.748437 21.3749L1.21595 20.7266L1.97232 20.9744V23.0721L0.748437 21.3749ZM2.06232 21.0036L4.13257 21.6814L4.16802 21.7304L4.92324 22.778L4.21307 23.7629L4.13257 23.8743C4.0253 23.9095 3.31319 24.1428 2.98612 24.2499L2.94106 24.2646C2.92264 24.2705 2.90604 24.2758 2.89141 24.2806L2.853 24.2932L2.06232 23.1969V21.0036ZM2.06232 20.1069L2.81868 19.8594L3.31775 20.5514L4.04245 21.5566L2.06232 20.9083V20.1069ZM2.38549 19.1047L2.853 18.4563L3.77142 18.7569L4.83325 19.1047L3.77142 19.4521L2.853 19.7529L2.38549 19.1047ZM2.06232 18.1021V17.3009L2.66179 17.1045L4.04245 16.6527L2.81868 18.3498L2.06232 18.1021ZM0.838431 13.161L2.06232 12.7604V11.4637L2.81868 12.5126L4.04245 12.1124L3.2862 13.161L3.66929 13.6925L4.04245 14.2098L2.81868 13.8096L2.06232 14.8581V13.5618L0.838431 13.161ZM0.748437 9.48786L1.53227 8.40065L1.97232 7.79068V9.08702L3.1962 9.48786L1.97232 9.8884V11.1848L0.748437 9.48786ZM0.838431 5.81447L2.06232 5.41363V4.11729L2.81868 5.16615L4.04269 4.7656L3.2862 5.81447L4.04245 6.86334L2.81868 6.46279L2.06232 7.51165V6.21503L0.838431 5.81447ZM0.748437 2.14108L1.21595 1.49306L1.97232 1.74053V3.83827L0.748437 2.14108ZM2.06232 1.77002L4.13257 2.44754L4.92324 3.54418L4.13257 4.64084L2.853 5.05967L2.06232 3.96303V1.77002ZM2.06232 0.873356L2.81868 0.625889L3.31775 1.31785L4.04245 2.32307L2.06232 1.67475V0.873356ZM3.3826 0.440949L4.97893 -0.0814173L6.25826 0.337419V1.69275L5.46757 2.7894C5.28129 2.72864 4.31451 2.41185 4.18812 2.37056L2.90856 0.596392L3.3826 0.440949ZM6.34828 1.72224L7.62784 -0.051924L8.90729 1.72224V3.07787L7.62784 3.4964L6.34828 3.07787V1.72224ZM8.99728 3.14364V1.84701L9.75351 2.89617L10.2272 2.74102L10.9775 2.49533L10.2212 3.54418L10.9775 4.59305L9.75351 4.1925L8.99728 5.24137V3.94474L7.77341 3.54418L8.99728 3.14364ZM8.99728 0.337419L10.2767 -0.0814173L11.3877 0.282263L12.347 0.596392L11.0676 2.37056C10.9411 2.41185 9.97446 2.72864 9.78808 2.7894L8.99728 1.69275V0.337419ZM12.4369 0.625889L13.1934 0.873356V1.67475L12.6099 1.86559L11.2131 2.32307L12.4369 0.625889ZM13.2832 3.99253L14.5628 2.21836L15.8422 3.99253V5.34785L14.5628 5.76669L14.0946 5.61361L13.2832 5.34785V3.99253ZM13.2832 1.74053L14.0397 1.49306L14.5072 2.14108L13.7555 3.18346L13.2832 3.83827V1.74053ZM15.0859 1.49306L15.8422 1.74053V3.83827L14.6184 2.14108L15.0859 1.49306ZM15.9322 5.41363V4.11729L16.6886 5.16615L17.9124 4.7656L17.156 5.81447L17.9124 6.86334L16.6886 6.46279L15.9322 7.51165V6.21503L14.7083 5.81447L15.9322 5.41363ZM15.9322 1.77002L18.0026 2.44754L18.7931 3.54418L18.0026 4.64084L16.7231 5.05967L15.9322 3.96303V1.77002ZM15.9322 0.873356L16.6886 0.625889L17.1879 1.31814L17.9124 2.32307L15.9322 1.67475V0.873356ZM17.7377 0.282263L18.8487 -0.0814173L20.1284 0.337419V1.69304L19.3374 2.7894C19.1512 2.72864 18.1845 2.41185 18.058 2.37056L16.7786 0.596392L17.7377 0.282263ZM20.2183 1.72224L21.4977 -0.051924L22.7769 1.72224V3.07787L21.4977 3.4964L20.2183 3.07787V1.72224ZM22.8671 3.14364V1.84701L23.6237 2.89617L23.861 2.8183L24.8476 2.49533L24.0912 3.54418L24.8476 4.59305L23.6237 4.1925L22.8671 5.24137V3.94474L21.6431 3.54418L22.8671 3.14364ZM22.8671 0.337419L24.1465 -0.0814173L25.2276 0.27253L26.2169 0.596392L24.9372 2.37056C24.8111 2.41185 23.8443 2.72864 23.6579 2.7894L22.8671 1.69275V0.337419ZM26.3068 0.625889L27.0633 0.873356V1.67475L26.4798 1.86559L25.0828 2.32307L26.3068 0.625889ZM27.6257 3.18346L27.1535 3.83827V1.74053L27.9096 1.49306L27.6257 3.18346ZM27.1535 31.9282V30.5726L27.2264 30.4717L27.1535 31.9282ZM27.1535 30.4186V29.1221L25.9294 28.7215L27.1535 28.3207V27.0244L27.4298 27.4076L27.1535 30.4186ZM24.3026 30.2638L23.7138 29.4468L24.7028 29.123L25.7839 28.7689L27.0633 29.1881V30.5434L26.2725 31.64L24.9932 31.2212L24.3026 30.2638ZM23.6579 33.91L22.8671 32.8136V30.6206L24.2376 31.069L24.9372 31.2982L25.728 32.3948L24.9372 33.4911L23.6579 33.91ZM20.2183 32.8431L20.4303 32.5494L21.4977 31.0686L22.5656 32.5494L22.7769 32.8431V34.1985L21.4977 34.6172L20.2183 34.1985V32.8431ZM21.4423 30.9914L20.9031 31.7394L20.2183 32.6886V30.5911L20.9747 30.3434L21.4423 30.9914ZM22.7769 30.5909V32.6886L22.5296 32.3452L21.5536 30.9914L22.0208 30.3434L22.7769 30.5909ZM19.4275 29.3992L19.9164 28.7215L19.4275 28.0436L20.2183 27.7847V26.9473L21.009 27.206L21.4977 26.5283L21.9865 27.206L22.7772 26.9473V27.7847L23.568 28.0436L23.0794 28.7215L23.568 29.3992L22.7772 29.6579V30.4958L21.9865 30.2369L21.4977 30.9148L21.009 30.2369L20.2183 30.4958V29.6579L19.4275 29.3992ZM18.1482 31.1734L18.8016 30.267L19.3719 29.4761L20.1284 29.7238V30.525L18.1482 31.1734ZM17.2672 32.3948L18.058 31.2982L20.1284 30.6206V32.8136L19.3374 33.9102L18.058 33.4911L17.2672 32.3948ZM15.9322 34.2462L15.9913 34.164L16.7231 33.1497L17.8589 33.5216L18.0026 33.5684L18.7931 34.6649L18.0026 35.7615L15.9322 36.4392V34.2462ZM15.9322 31.9942V30.6973L16.0895 30.9156L16.6829 31.7386L16.6886 31.7465L17.9124 31.3458L17.156 32.3948L17.9124 33.4436L16.6886 33.0428L15.9322 34.092V32.7953L14.7083 32.3948L15.9322 31.9942ZM13.2832 30.5726L13.6028 30.1295L14.5628 28.7987L15.8422 30.5726V31.9282L14.5628 32.347L13.2832 31.9282V30.5726ZM12.0595 28.7215L13.2832 28.3207V27.0244L14.5072 28.7215L13.9716 29.4641L13.2832 30.4186V29.1221L12.0595 28.7215ZM10.4452 30.2809L9.84361 29.4468L10.8326 29.123L11.9138 28.7689L13.1934 29.1881V30.5434L12.4026 31.64L11.123 31.2212L10.4452 30.2809ZM9.78808 33.91L8.99728 32.8136V30.6206L11.0676 31.2982L11.8582 32.3948L11.0676 33.4911L9.78808 33.91ZM6.34837 32.8431L6.69295 32.3653L7.62784 31.0686L8.63111 32.46L8.90729 32.8431V34.1985L7.62784 34.6172L7.27229 34.5011L6.34837 34.1985V32.8431ZM7.57213 30.9914L7.03887 31.7312L6.34837 32.6886V30.5911L7.10475 30.3434L7.57213 30.9914ZM8.90729 30.5911V32.6889L8.60525 32.2697L7.68341 30.9914L8.15104 30.3434L8.90729 30.5911ZM5.55759 29.3992L6.04636 28.7215L5.55759 28.0436L6.34837 27.7847V26.9473L7.13906 27.206L7.62784 26.5283L8.1165 27.206L8.90729 26.9473V27.7847L9.69807 28.0436L9.20931 28.7215L9.69807 29.3992L8.90729 29.6579V30.4958L8.1165 30.2369L7.62784 30.9148L7.13906 30.2369L6.34837 30.4958V29.6579L5.55759 29.3992ZM4.27803 31.1734L4.94303 30.2513L5.502 29.4761L6.25826 29.7238V30.525L4.27803 31.1734ZM4.42292 29.123L5.41189 29.4468L4.82295 30.2638L4.13257 31.2212L2.853 31.64L2.06232 30.5434V29.1881L3.34176 28.7689L4.42292 29.123ZM5.41189 27.9962L4.42292 28.32L3.34176 28.6738L2.06232 28.2549V26.8995L2.853 25.803L4.02793 26.1875L4.13257 26.2219L5.41189 27.9962ZM5.93508 28.7215L5.46757 29.3697L4.54904 29.069L3.48747 28.7215L4.54904 28.3737L5.46757 28.073L5.93508 28.7215ZM5.00282 27.2745L4.27803 26.2694L6.25826 26.9178V27.7191L5.502 27.9665L5.00282 27.2745ZM5.46757 23.5328L6.25826 24.6292V26.8224L4.18812 26.1447L3.39736 25.0484L4.18812 23.9516L5.46757 23.5328ZM5.502 22.1297L6.25826 21.0809V22.3771L7.48225 22.778L6.25826 23.1786V24.4752L5.502 23.426L4.27803 23.8269L5.03452 22.778L4.51453 22.0569L4.27803 21.7292L5.502 22.1297ZM6.25826 19.5713V20.9266L5.46757 22.023L4.18812 21.6041L2.90856 19.83L3.89777 19.5061L4.97881 19.1524L6.25826 19.5713ZM4.18812 16.6051L5.46757 16.1861L6.25826 17.2827V18.638L4.97881 19.0571L3.89777 18.7029L2.90856 18.3794L4.18812 16.6051ZM4.92324 15.4312L4.13257 16.5279L2.06232 17.2057V15.0124L2.853 13.9157L4.13257 14.3349L4.92324 15.4312ZM4.18812 12.0646L6.25826 11.3868V13.5798L5.46757 14.6764L4.18812 14.2576L3.92452 13.8921L3.39736 13.161L4.18812 12.0646ZM4.42292 9.88928L5.41189 10.2132L4.13257 11.9874L2.853 12.4061L2.06232 11.3098V9.95417L3.34176 9.53535L4.42292 9.88928ZM5.41189 8.76257L4.42292 9.08613L3.34176 9.44008L2.06232 9.02124V7.66592L2.853 6.56927L4.13257 6.9881L5.41189 8.76257ZM5.46757 4.29898L6.25826 5.39563V7.58893L4.18812 6.91112L3.39736 5.81447L4.18812 4.71782L5.46757 4.29898ZM8.90729 5.36614L7.62784 7.1406L6.34828 5.36614V4.01081L7.62784 3.59197L8.90729 4.01081V5.36614ZM7.68341 7.21759L8.46733 6.13067L8.90729 5.5204V7.61814L8.1508 7.86589L7.68341 7.21759ZM6.34828 7.61814V5.5204L7.57213 7.21759L7.10475 7.86589L6.34828 7.61814ZM9.69798 8.81005L9.20931 9.48786L9.69798 10.1654L8.90729 10.4244V11.2621L8.1165 11.0031L7.62784 11.6808L7.13906 11.0031L6.34828 11.2621V10.4244L5.55759 10.1654L6.04636 9.48786L5.55759 8.81005L6.34828 8.55108V7.71341L7.13906 7.97237L7.62784 7.29456L8.1165 7.97237L8.90729 7.71341V8.55108L9.69798 8.81005ZM9.59674 7.48777L10.9775 7.03589L9.75351 8.73306L8.99728 8.48531V7.68391L9.59674 7.48777ZM11.8582 5.81447L11.0676 6.91112L8.99728 7.58893V5.39563L9.78808 4.29898L11.0676 4.71782L11.8582 5.81447ZM13.1934 3.96303L12.4026 5.05967L11.123 4.64084L10.3325 3.54418L11.123 2.44754L13.1934 1.77002V3.96303ZM13.1934 6.21503V7.51165L12.4369 6.46279L11.2131 6.86334L11.9694 5.81447L11.2131 4.7656L12.4369 5.16615L13.1934 4.11729V5.41363L14.4171 5.81447L13.1934 6.21503ZM15.8422 7.63641L14.5628 9.41059L13.2832 7.63641V6.2808L14.5628 5.86196L15.8422 6.2808V7.63641ZM17.0661 9.48786L15.8422 9.8884V11.1848L14.6184 9.48786L15.4022 8.40065L15.8422 7.79068V9.08702L17.0661 9.48786ZM19.282 8.76257L18.2927 9.08613L17.2116 9.44008L15.9322 9.02124V7.66592L16.7231 6.56927L18.0026 6.9881L19.282 8.76257ZM19.3374 4.29898L20.1284 5.39563V7.58893L18.058 6.91112L17.2672 5.81447L18.058 4.71782L19.3374 4.29898ZM22.7769 5.36614L21.4977 7.1406L20.2183 5.36614V4.01081L21.4977 3.59197L21.7376 3.67043L22.7769 4.01081V5.36614ZM21.5536 7.21759L22.3372 6.13067L22.7769 5.5204V7.61814L22.0208 7.86589L21.5536 7.21759ZM20.2183 7.61814V5.5204L21.4423 7.21759L20.9747 7.86589L20.2183 7.61814ZM23.568 8.81005L23.0794 9.48786L23.568 10.1654L22.7769 10.4244V11.2621L21.9865 11.0031L21.4977 11.6808L21.009 11.0031L20.2183 11.2621V10.4244L19.4275 10.1654L19.9164 9.48786L19.4275 8.81005L20.2183 8.55108V7.71341L21.009 7.97237L21.4977 7.29456L21.9865 7.97237L22.7769 7.71341V8.55108L23.568 8.81005ZM24.8476 7.03589L24.0583 8.12989L23.6237 8.73306L22.8671 8.48531V7.68391L24.8476 7.03589ZM25.728 5.81447L24.9372 6.91112L23.8564 7.26507L22.8671 7.58893V5.39563L23.6579 4.29898L24.9372 4.71782L25.728 5.81447ZM27.0633 3.96303L26.2725 5.05967L24.9932 4.64084L24.2024 3.54418L24.9932 2.44754L27.0633 1.77002V3.96303ZM27.0633 6.21503V7.51165L26.3068 6.46279L25.0831 6.86334L25.8392 5.81447L25.0831 4.7656L26.3068 5.16615L27.0633 4.11729V5.41363V6.21503ZM27.0633 25.4488V26.7454L26.3068 25.6964L25.0831 26.0971L25.8392 25.0484L25.0831 23.9992L26.3068 24.4L27.0633 23.3511V24.6475V25.4488ZM24.7028 28.32L23.7138 27.9962L24.9932 26.2219L25.218 26.1482L26.2725 25.803L27.0633 26.8995V28.2549L25.7839 28.6738L24.7028 28.32ZM22.8671 26.9178L24.0367 26.5348L24.8476 26.2694L23.6237 27.9665L22.8671 27.7191V26.9178ZM21.6431 22.778L22.8671 22.3771V21.0809L23.6237 22.1297L24.8476 21.7292L24.0912 22.778L24.8476 23.8269L23.6237 23.426L22.8671 24.4749V23.1786L21.6431 22.778ZM20.2183 24.7539L21.4423 26.4512L20.9747 27.0995L20.2183 26.8518V24.7539ZM19.3719 23.426L18.1482 23.8269L18.9043 22.778L18.1482 21.7292L19.3719 22.1297L19.3777 22.1215L20.1284 21.0809V22.3771L21.3521 22.778L20.1284 23.1786V24.4752L19.3719 23.426ZM18.058 26.1447L17.2672 25.0484L18.058 23.9516L19.3374 23.5328L20.1284 24.6292V26.8224L18.058 26.1447ZM18.8725 27.274L18.1482 26.2694L20.1284 26.9178V27.7191L19.3719 27.9668L18.8725 27.274ZM18.4192 29.069L17.3574 28.7215L18.4192 28.3737L19.3374 28.073L19.8049 28.7215L19.3374 29.3697L18.4192 29.069ZM15.9322 29.1881L17.2116 28.7689L18.2927 29.123L19.282 29.4468L18.6804 30.2809L18.0026 31.2212C17.9467 31.2391 17.729 31.3105 17.486 31.3902L16.8597 31.5949C16.7997 31.615 16.7517 31.6302 16.7231 31.64L15.9322 30.5434V29.1881ZM15.3599 27.6932L15.8422 27.0244V28.3207L17.0661 28.7215L15.8422 29.1221V30.4186L15.7449 30.2838L14.6184 28.7215L15.3599 27.6932ZM13.2832 25.5146L14.5628 25.0958L15.8422 25.5146V26.87L14.5628 28.6442L13.2832 26.87V25.5146ZM12.4369 25.6964L11.2131 26.0971L11.9694 25.0484L11.2131 23.9992L12.4369 24.4L13.1934 23.3511V24.6475L14.4171 25.0484L13.1934 25.4488V26.7454L12.4369 25.6964ZM10.8326 28.32L9.84361 27.9962L11.123 26.2219L11.3144 26.1591L12.4026 25.803L12.9053 26.5002L13.1934 26.8995V28.2549L11.9138 28.6738L10.8326 28.32ZM8.99728 26.9178L9.61724 26.7148L10.9775 26.2694L9.7538 27.9665L8.99728 27.7191V26.9178ZM7.77341 22.778L8.99728 22.3771V21.0809L9.06029 21.1682L9.75351 22.1297L10.9775 21.7292L10.2212 22.778L10.9775 23.8269L9.7538 23.426L8.99728 24.4752V23.1786L7.77341 22.778ZM6.34837 20.9558L7.10132 19.9116L7.62784 19.1816L8.90729 20.9558V22.3114L7.62784 22.7303L6.34837 22.3114V20.9558ZM8.90729 13.455L7.68341 11.7578L8.1508 11.1096L8.90729 11.3573V13.455ZM9.75351 14.7829L10.9775 14.3823L10.2212 15.4312L10.9775 16.4801L9.75351 16.0796L8.99728 17.1285V15.8321L7.77341 15.4312L8.99728 15.0307V13.7341L9.75351 14.7829ZM11.0676 12.0646L11.8582 13.161L11.0675 14.2576L9.78808 14.6764L8.99728 13.5798V11.3868L11.0676 12.0646ZM10.2527 10.935L10.9775 11.9395L8.99728 11.2915V10.4902L9.75351 10.2427L10.2527 10.935ZM10.7249 9.1463L11.7683 9.48786L10.7249 9.82945L9.78808 10.1359L9.32059 9.48786L9.78808 8.83955L10.7249 9.1463ZM13.1934 9.02124L11.9138 9.44008L10.8586 9.09469L9.84361 8.76257L11.123 6.9881L12.4026 6.56927L13.1934 7.66592V9.02124ZM13.7233 10.5747L13.2832 11.1848V9.8884L12.0595 9.48786L13.2832 9.08702V7.79068L14.5072 9.48786L13.7233 10.5747ZM15.8422 12.6947L14.5628 13.1134L13.2832 12.6947V11.3393L14.5628 9.56485L15.8422 11.3393V12.6947ZM16.6886 12.5126L17.9124 12.1124L17.156 13.161L17.9124 14.2098L16.6886 13.8096L15.9322 14.8581V13.5618L14.7083 13.161L15.9322 12.7604V11.4637L16.6886 12.5126ZM18.2927 9.88928L19.282 10.2132L18.0026 11.9874L16.7231 12.4061L16.0312 11.447L15.9322 11.3098V9.95417L17.2116 9.53535L18.2927 9.88928ZM20.1284 11.2915L19.5209 11.4903L18.1482 11.9395L19.3719 10.2427L20.1284 10.4902V11.2915ZM21.3521 15.4312L20.1284 15.8321V17.1285L19.3719 16.0796L18.1482 16.4804L18.9043 15.4312L18.1482 14.3823L19.3719 14.7829L20.1284 13.7341V15.0307L21.3521 15.4312ZM22.7769 13.455L21.5536 11.7578L22.0208 11.1096L22.7769 11.3573V13.455ZM23.6084 14.7622L23.6237 14.7829L23.8432 14.7113C23.8494 14.7092 23.8553 14.7071 23.8613 14.705L24.8476 14.3823L24.0912 15.4312L24.8476 16.4801L23.6237 16.0796L22.8671 17.1285V15.8321L21.6431 15.4312L22.8671 15.0307V13.7341L23.6084 14.7622ZM24.9372 12.0646L25.728 13.161L25.1779 13.9243L24.9372 14.2576C24.8111 14.2989 23.8443 14.6154 23.6579 14.6764L22.9661 13.7172L22.8671 13.5798V11.3868L24.9372 12.0646ZM23.9249 10.6603L24.8476 11.9395L24.5201 11.8327L22.8671 11.2915V10.4902L23.6237 10.2427L23.9249 10.6603ZM24.5765 9.14011L25.6384 9.48786L24.5765 9.8353L23.6579 10.1359L23.1904 9.48786L23.6579 8.83955L24.5765 9.14011ZM27.1535 11.1848V9.8884L25.9294 9.48786L27.1535 9.08702V7.79068L27.8865 8.8074L27.1535 11.1848ZM27.5934 22.4618L27.1535 23.0721V20.9744L27.9096 20.7266L27.5934 22.4618ZM27.1535 20.8788V20.0411L26.3624 19.7824L26.851 19.1047L26.3624 18.4268L27.1535 18.1681V17.3305V20.8788ZM26.4637 21.1044L25.0828 21.5566L26.3068 19.8594L27.0633 20.1069V20.9083L26.4637 21.1044ZM22.8671 19.5713L24.1465 19.1524L25.2276 19.5061L26.2169 19.83L24.9372 21.6041L23.6579 22.023L22.8671 20.9266V19.5713ZM26.2169 18.3794L25.2276 18.7029L24.1465 19.0571L22.8671 18.638V17.2827L23.6579 16.1861L24.9372 16.6051L26.2169 18.3794ZM26.7397 19.1047L26.2725 19.7529L25.3541 19.4521L24.2923 19.1047L25.3541 18.7569L26.2725 18.4563L26.7397 19.1047ZM25.8079 17.6575L25.0831 16.6527L27.0633 17.3009V18.1021L26.3068 18.3498L25.8079 17.6575ZM26.2725 13.9157L27.0633 15.0124V17.2057L24.9932 16.5279L24.2024 15.4312L24.9932 14.3349L26.2725 13.9157ZM27.9096 17.4827L27.1535 17.2349V15.1372L27.9096 17.4827ZM24.9932 11.9874L23.7138 10.2132L24.7028 9.88928L25.7839 9.53535L27.0633 9.95417V11.3095L26.2725 12.4061L24.9932 11.9874ZM27.0633 13.5618V14.8581L26.3068 13.8096L25.0828 14.2098L25.8392 13.161L25.0831 12.1124L26.3068 12.5126L27.0633 11.464V12.7604V13.5618ZM21.5536 19.1047L22.3372 18.0174L22.7769 17.4074V18.7041L24.001 19.1047L22.7769 19.5052V20.8018L21.5536 19.1047ZM20.2183 20.9558L21.4977 19.1816L22.7769 20.9558V22.3114L21.4977 22.7303L20.2183 22.3114V20.9558ZM20.2183 17.2532V15.8979L21.4977 15.479L22.7769 15.8979V17.2532L21.4977 19.0277L20.2183 17.2532ZM16.7785 19.83L17.7937 19.4978L18.8487 19.1524L20.1284 19.5713V20.9266L19.3374 22.023C19.1512 21.9622 18.1842 21.6454 18.058 21.6041L16.7785 19.83ZM16.7231 24.2932L15.9322 23.1969V21.0036L18.0026 21.6814L18.7931 22.778L18.0026 23.8743L16.7231 24.2932ZM13.2832 23.2261L14.5628 21.4519L15.8422 23.2261V24.5817L15.1506 24.8082L14.5628 25.0005L13.2832 24.5817V23.2261ZM13.2832 20.9744L14.0397 20.7266L14.5072 21.3749L13.7233 22.4618L13.2832 23.0721V20.9744ZM15.8422 20.9744V23.0721L14.6184 21.3749L14.7599 21.1788L15.0859 20.7266L15.8422 20.9744ZM16.5318 17.1045L17.9124 16.6527L16.6886 18.3498L15.9322 18.1021V17.3009L16.5318 17.1045ZM17.7937 18.7114L16.7785 18.3794L18.058 16.6051L19.3374 16.1861L20.1284 17.2827V18.638L18.8487 19.0571L17.7937 18.7114ZM17.1876 20.5514L17.9124 21.5566L15.9322 20.9083V20.1069L16.6886 19.8594L17.1876 20.5514ZM16.2555 19.1047L16.723 18.4563L17.6601 18.7631L18.7033 19.1047L17.6601 19.4462L16.723 19.7529L16.2555 19.1047ZM17.2672 13.161L18.058 12.0646L20.1284 11.3868V13.5798L19.3374 14.6764L18.058 14.2576L17.2672 13.161ZM18.7931 15.4312L18.0026 16.5279L15.9322 17.2057V15.0124L16.723 13.9157L18.0026 14.3349L18.7931 15.4312ZM12.4925 19.7824L12.9812 19.1047L12.4925 18.4268L13.2832 18.1681V17.3305L14.074 17.5891L14.5628 16.9113L15.0515 17.5891L15.7147 17.3721L15.8422 17.3305V18.1681L16.633 18.4268L16.1443 19.1047L16.633 19.7824L15.8422 20.0411V20.8788L15.7147 20.8372L15.0516 20.6201L14.5628 21.2977L14.074 20.6201L13.2832 20.8788V20.0411L12.4925 19.7824ZM12.5939 21.1044L11.2131 21.5566L12.4369 19.8594L13.1934 20.1069V20.9083L12.5939 21.1044ZM8.99728 19.5713L10.2767 19.1524L11.3578 19.5061L12.347 19.83L11.0675 21.6041L10.8314 21.6814L9.78808 22.023L8.99728 20.9266V19.5713ZM12.347 18.3794L11.3578 18.7029L10.2767 19.0571L8.99728 18.638V17.2827L9.78808 16.1861L11.0676 16.6051L12.347 18.3794ZM12.87 19.1047L12.4026 19.7529L11.4842 19.4521L10.4224 19.1047L11.4842 18.7569L12.4026 18.4563L12.87 19.1047ZM11.9378 17.6575L11.2131 16.6527L13.1934 17.3009V18.1021L12.4369 18.3498L11.9378 17.6575ZM12.4026 13.9157L13.1934 15.0124V17.2057L11.123 16.5279L10.3325 15.4312L11.123 14.3349L12.4026 13.9157ZM14.5072 16.8343L14.0397 17.4827L13.2832 17.2349V15.1372L14.5072 16.8343ZM15.8422 15.1372V17.2349L15.0859 17.4827L14.7599 17.0306L14.6184 16.8343L15.4022 15.7474L15.8422 15.1372ZM14.5628 16.7573L13.2832 14.9829V13.6276L14.5628 13.2087L15.8422 13.6276V14.9829L14.5628 16.7573ZM11.123 11.9874L9.84361 10.2132L10.8586 9.8807L11.9138 9.53535L13.1934 9.95417V11.3098L12.4026 12.4061L11.123 11.9874ZM12.4369 12.5126L13.1934 11.4637V12.7604L14.4171 13.161L13.1934 13.5618V14.8581L12.4369 13.8096L11.2131 14.2098L11.9694 13.161L11.2131 12.1124L12.4369 12.5126ZM7.62784 19.0277L6.34837 17.2532V15.8979L7.15964 15.6322L7.62784 15.479L8.90729 15.8979V17.2532L7.62784 19.0277ZM8.90729 17.4074V18.7041L10.1311 19.1047L8.90729 19.5052V20.8018L7.68341 19.1047L8.90729 17.4074ZM11.8582 25.0484L11.0676 26.1447L8.99728 26.8224V24.6292L9.78808 23.5328L11.0676 23.9516L11.8582 25.0484ZM10.3325 22.778L11.123 21.6814L13.1934 21.0036V23.1969L12.4026 24.2932L11.123 23.8743L10.3325 22.778ZM18.0026 26.2219L19.282 27.9962L18.2927 28.32L17.2116 28.6738L15.9322 28.2549V26.8995L16.7231 25.803L17.8109 26.1591L18.0026 26.2219ZM16.6886 25.6964L15.9322 26.7454V25.4488L14.7083 25.0484L14.8954 24.987L15.9322 24.6475V23.3511L15.9951 23.4381L16.6886 24.4L17.9124 23.9992L17.156 25.0484L17.9124 26.0971L16.6886 25.6964ZM18.9942 19.1047L20.2183 18.7041V17.4074L20.9513 18.4239L21.4423 19.1047L20.6583 20.1916L20.2183 20.8018V19.5052L18.9942 19.1047ZM25.728 25.0484L24.9372 26.1447L24.0242 26.4436L22.8671 26.8224V24.6292L23.6579 23.5328L24.9372 23.9516L25.728 25.0484ZM24.2024 22.778L24.9932 21.6814L27.0633 21.0036V23.1969L26.2725 24.2932L24.9932 23.8743L24.2024 22.778ZM27.0633 7.66592V9.02124L25.7839 9.44008L24.7028 9.08613L23.7138 8.76257L24.9932 6.9881L26.2725 6.56927L27.0633 7.66592ZM20.2183 13.455V11.3573L20.9747 11.1096L21.4423 11.7578L20.6905 12.8003L20.2183 13.455ZM21.4977 11.8352L22.7769 13.6093V14.9646L21.4977 15.3838L20.2183 14.9646V13.6093L21.4977 11.8352ZM18.8727 8.04081L18.1482 7.03589L20.1284 7.68391V8.48531L19.3719 8.73306L18.8727 8.04081ZM19.8049 9.48786L19.3374 10.1359L18.4192 9.8353L17.3574 9.48786L18.4192 9.14011L19.3374 8.83955L19.8049 9.48786ZM6.34828 13.455V11.3573L7.10475 11.1096L7.57213 11.7578L6.78821 12.8451L6.34828 13.455ZM7.62784 11.8352L8.90729 13.6093V14.9646L7.62784 15.3838L6.34828 14.9646V13.6093L7.62784 11.8352ZM5.502 10.2427L6.25826 10.4902V11.2915L5.63834 11.4944L4.27803 11.9395L5.502 10.2427ZM5.00282 8.04081L4.27803 7.03589L6.25826 7.68391V8.48531L5.502 8.73306L5.00282 8.04081ZM5.93508 9.48786L5.46757 10.1359L4.54904 9.8353L3.48747 9.48786L4.54904 9.14011L5.46757 8.83955L5.93508 9.48786ZM7.48225 15.4312L6.25826 15.8321V17.1285L5.502 16.0796L4.27803 16.4804L5.03452 15.4312L4.27803 14.3823L5.502 14.7829L6.25826 13.7341V15.0307L7.48225 15.4312ZM5.12452 19.1047L6.34828 18.7041V17.4074L7.57213 19.1047L6.34828 20.8018V19.5052L5.12452 19.1047ZM7.57213 26.4512L7.10475 27.0995L6.34837 26.8518V24.7539L7.57213 26.4512ZM8.90729 24.7539V26.8518L8.15104 27.0995L7.68341 26.4512L8.45466 25.3817L8.90729 24.7539ZM7.62784 26.3741L6.34837 24.5997V23.2443L7.62784 22.8256L8.90729 23.2443V24.5997L7.62784 26.3741ZM10.1129 29.9743L10.9775 31.1734L8.99728 30.525V29.7238L9.7538 29.4761L10.1129 29.9743ZM9.32059 28.7215L9.78808 28.073L10.7065 28.3737L11.7683 28.7215L10.7065 29.069L9.78808 29.3697L9.32059 28.7215ZM22.7769 24.7539V26.8518L22.0208 27.0995L21.5536 26.4512L22.3244 25.3817L22.7769 24.7539ZM21.4977 26.3741L20.2183 24.5997V23.2443L21.4977 22.8256L22.7772 23.2443V24.5997L21.4977 26.3741ZM23.9931 29.9883L24.8476 31.1734L22.8671 30.525V29.7238L23.6237 29.4761L23.9931 29.9883ZM23.1904 28.7215L23.6579 28.073L24.5765 28.3737L25.6384 28.7215L24.5765 29.069L23.6579 29.3697L23.1904 28.7215ZM20.9344 3.40763L21.3521 3.54418L20.1284 3.94474V5.24137L19.3719 4.1925L18.1482 4.59305L18.9043 3.54418L18.1482 2.49533L18.7609 2.69589L19.3719 2.89617L20.1284 1.84701V3.14364L20.9344 3.40763ZM7.48225 3.54418L6.25826 3.94474V5.24137L5.502 4.1925L4.27803 4.59305L5.03452 3.54418L4.27803 2.49533L4.83849 2.67879L5.502 2.89617L6.25826 1.84701V3.14364L7.48225 3.54418ZM4.92324 34.6649L4.13257 35.7615L2.06232 36.4392V34.2462L2.853 33.1497L4.13257 33.5684L4.92324 34.6649ZM3.39736 32.3948L4.18812 31.2982L6.25826 30.6206V32.8133L5.46757 33.9102L4.18812 33.4911L3.39736 32.3948ZM7.89979 34.7063L7.77341 34.6649L8.99728 34.2642V32.9679L9.11348 33.129L9.75351 34.0167L10.5389 33.7596L10.9775 33.6163L10.2212 34.6649L10.9775 35.7137L9.75351 35.3134L8.99728 36.362V35.0657L7.89979 34.7063ZM21.6431 34.6649L22.8671 34.2642V32.9679L23.6237 34.0167L24.8476 33.6163L24.0912 34.6649L24.8476 35.7137L23.6237 35.3134L22.8671 36.362V35.0657L21.6431 34.6649ZM1.97232 36.4687L1.21595 36.7165L0.748437 36.0679L1.28752 35.3204L1.97232 34.3707V36.4687ZM1.97232 17.2349L1.21595 17.4827L0.748437 16.8343L1.53227 15.7474L1.97232 15.1372V17.2349ZM27.1535 1.64526V0.807582L26.3624 0.548609L26.4985 0.359835L26.851 -0.128906H26.7397L26.2725 0.519113L25.3541 0.21855L24.2923 -0.128906H24.001L22.7769 0.271645V1.56827L21.5536 -0.128906H21.4423L21.0921 0.356002L20.2183 1.56827V0.271645L18.9942 -0.128906H18.7033L17.6194 0.225924L16.7231 0.519113L16.2555 -0.128906H16.1443L16.633 0.548609L15.8422 0.807582V1.64526L15.0516 1.38628L14.5628 2.06409L14.074 1.38628L13.2832 1.64526V0.807582L12.4925 0.548609L12.9812 -0.128906H12.87L12.4026 0.519113L11.5061 0.225924L10.4224 -0.128906H10.1311L8.90729 0.271645V1.56827L8.63087 1.18483L7.68341 -0.128906H7.57213L7.03442 0.616742L6.34828 1.56827V0.271645L5.12452 -0.128906H4.83325L2.853 0.519113L2.38549 -0.128906H2.27433L2.76312 0.548609L1.97232 0.807582V1.64526L1.18152 1.38628L0.692871 2.06409V2.21836L1.97232 3.99253V5.34785L0.692871 5.76669V5.86196L1.97232 6.2808V7.63641L0.692871 9.41059V9.56485L1.97232 11.3393V12.6947L0.692871 13.1134V13.2087L1.97232 13.6276V14.9829L0.692871 16.7573V16.9113L1.18152 17.5891L1.97232 17.3305V18.1681L2.62438 18.3814L2.76312 18.4268L2.27433 19.1047L2.76312 19.7824L1.97232 20.0411V20.8788L1.18152 20.6201L0.692871 21.2977V21.4519L1.97232 23.2261V24.5817L0.692871 25.0005V25.0958L1.97232 25.5146V26.87L1.83794 27.0565L0.692871 28.6442V28.7987L1.774 30.298L1.97232 30.5726V31.9282L0.692871 32.347V32.4423L0.825052 32.4856L1.97232 32.8612V34.2168L1.76042 34.5103L0.692871 35.9909V36.1451L1.18152 36.823L1.97232 36.564V37.4018L2.76312 37.6606L2.27433 38.3384H2.38549L2.853 37.6899L3.80194 38.0005L4.83325 38.3384H5.12452L6.34828 37.9376V36.6413L7.57213 38.3384H7.68341L8.90729 36.6413V37.9376L10.1311 38.3384H10.4224L11.4538 38.0005L12.4026 37.6899L12.87 38.3384H12.9812L12.4927 37.6606L13.2832 37.4018V36.564L14.074 36.823L14.5628 36.1451L15.0516 36.823L15.8422 36.564V37.4018L16.633 37.6606L16.1443 38.3384H16.2555L16.7231 37.6899L18.2668 38.1955L18.7033 38.3384H18.9942L20.2183 37.9376V36.6413L20.3154 36.7757L21.4423 38.3384H21.5536L22.7769 36.6413V37.9376L24.001 38.3384H24.2923L25.3237 38.0005L26.2725 37.6899L26.7397 38.3384H26.851L26.3624 37.6606L27.1535 37.4018V36.564" fill="#FAF3E4"/>
<path d="M31.0182 7.80371V15.2682H23.4688V22.7347H31.0182V30.2015H38.5675V22.7347V15.2702V15.2682V7.80371H31.0182Z" fill="#FFA800"/>
</svg>
