<svg width="7" height="16" viewBox="0 0 7 16" fill="none" xmlns="http://www.w3.org/2000/svg">
<path fill-rule="evenodd" clip-rule="evenodd" d="M1.54098 8.06094V15.7911C1.54098 15.8955 1.62295 16 1.7377 16H4.44262C4.54098 16 4.63934 15.9129 4.63934 15.7911V7.92165H6.59016C6.68852 7.92165 6.77049 7.8346 6.78688 7.73014L6.95082 5.37976C6.96721 5.25789 6.86885 5.15343 6.7541 5.15343H4.62295V3.48205C4.62295 3.08161 4.91803 2.76823 5.29508 2.76823H6.80328C6.90164 2.76823 7 2.68117 7 2.5593V0.208923C7 0.104461 6.91803 0 6.80328 0H4.2459C2.7541 0 1.54098 1.28836 1.54098 2.87269V5.15343H0.196721C0.0983608 5.15343 0 5.24048 0 5.36235V7.73014C0 7.8346 0.0819673 7.93906 0.196721 7.93906H1.54098V8.06094Z" fill="white"/>
</svg>
