<svg width="17" height="17" viewBox="0 0 17 17" fill="none" xmlns="http://www.w3.org/2000/svg">
<path d="M11.9 5.1001C13.2526 5.1001 14.5498 5.63742 15.5062 6.59385C16.4627 7.55029 17 8.84749 17 10.2001V16.1501H13.6V10.2001C13.6 9.74923 13.4209 9.31683 13.1021 8.99802C12.7833 8.6792 12.3509 8.5001 11.9 8.5001C11.4491 8.5001 11.0167 8.6792 10.6979 8.99802C10.3791 9.31683 10.2 9.74923 10.2 10.2001V16.1501H6.79999V10.2001C6.79999 8.84749 7.33731 7.55029 8.29374 6.59385C9.25018 5.63742 10.5474 5.1001 11.9 5.1001Z" fill="white"/>
<path d="M3.4 5.9502H0V16.1502H3.4V5.9502Z" fill="white"/>
<path d="M1.7 3.4C2.63888 3.4 3.4 2.63888 3.4 1.7C3.4 0.761116 2.63888 0 1.7 0C0.761116 0 0 0.761116 0 1.7C0 2.63888 0.761116 3.4 1.7 3.4Z" fill="white"/>
</svg>
