<svg width="38" height="38" viewBox="0 0 38 38" fill="none" xmlns="http://www.w3.org/2000/svg">
<path d="M15.1164 0H0.0174561V37.3327H22.6661V29.8663V22.3996H15.1164V29.8663H7.56711V22.3996V14.9331V7.46653H15.1164V14.9331H22.6661V7.46653V0H15.1164Z" fill="white"/>
<mask id="mask0_1465_2365" style="mask-type:alpha" maskUnits="userSpaceOnUse" x="0" y="0" width="23" height="38">
<path d="M15.099 0.000976562H0V37.3336H22.6487V29.8673V22.4006H15.099V29.8673H7.54965V22.4006V14.9341V7.4675H15.099V14.9341H22.6487V7.4675V0.000976562H15.099Z" fill="#359BC2"/>
</mask>
<g mask="url(#mask0_1465_2365)">
<path d="M26.5624 34.1753L26.3507 33.8818V32.5262L26.5624 34.1753ZM27.1069 36.3815L26.3507 36.1338V34.0358L26.5981 34.3794L27.1069 36.3815ZM26.2605 32.4603V33.757L25.5041 32.7078L24.2803 33.1087L25.0365 32.0599L24.2803 31.0109L25.5041 31.4115L26.2605 30.3627V31.6592V32.4603ZM26.2605 36.1042L24.1904 35.4266L23.3997 34.3299L24.1904 33.2335L25.4698 32.8147L26.2605 33.9112V36.1042ZM26.2605 37.0009L25.5641 37.2289L25.5041 37.2484L24.8451 36.3343L24.2803 35.5512L26.2605 36.1995V37.0009ZM24.4548 37.5918L23.3438 37.9554L22.0644 37.5368V36.1813L22.8551 35.085L24.1345 35.5037L24.5295 36.0509L25.4142 37.2779L24.4548 37.5918ZM21.9742 36.1518L21.9034 36.2503L20.6949 37.9263L19.4155 36.1518V34.7967L20.6949 34.3776L21.9742 34.7967V36.1518ZM19.3256 34.7308V36.0271L18.5692 34.9785L17.3454 35.3787L18.1016 34.3299L17.3454 33.2813L18.5692 33.6818L19.3256 32.633V33.9293L20.5494 34.3299L19.3256 34.7308ZM19.3256 37.5368L18.5284 37.7976L18.046 37.9554L15.9759 37.2779L17.0293 35.817L17.2552 35.5037L18.5346 35.085L19.3256 36.1813V37.5368ZM15.8859 37.2484L15.1295 37.0009V36.1995L17.1097 35.5512L16.1911 36.8252L15.8859 37.2484ZM15.0395 33.8818L14.8277 34.1753L13.76 35.6559L12.6924 34.1753L12.4805 33.8818V32.5262L13.76 32.1073L13.8922 32.1507L15.0395 32.5262V33.8818ZM15.0395 36.1338L14.2832 36.3815L13.8157 35.7329L14.3547 34.9855L15.0395 34.0358V36.1338ZM13.237 36.3815L12.4805 36.1338V34.0358L12.7282 34.3794L13.7045 35.7329L13.237 36.3815ZM12.3906 32.4603V33.757L11.6342 32.7078L10.4104 33.1087L11.1667 32.0599L10.4104 31.0109L11.6342 31.4115L12.3906 30.3627V31.6592L13.6144 32.0599L12.3906 32.4603ZM12.3906 36.1042L10.3203 35.4266L9.52972 34.3299L10.3203 33.2335L11.5998 32.8147L12.3906 33.9112V36.1042ZM12.3906 37.0009L11.6342 37.2484L10.9752 36.3343L10.4104 35.5512L12.3906 36.1995V37.0009ZM10.585 37.5918L9.474 37.9554L8.19455 37.5368V36.1813L8.98534 35.085L10.2648 35.5037L10.6594 36.0509L11.5443 37.2779L10.585 37.5918ZM8.10456 36.1518L8.03354 36.2503L6.82511 37.9263L5.54563 36.1518V34.7967L6.82511 34.3776L8.10456 34.7967V36.1518ZM5.45552 34.7308V36.0271L4.69926 34.9785L3.4753 35.3787L4.23179 34.3299L3.4753 33.2813L4.69926 33.6818L5.45552 32.633V33.9293L6.67952 34.3299L6.4572 34.4029L5.45552 34.7308ZM5.45552 37.5368L4.17608 37.9554L3.06508 37.5918L2.10583 37.2779L2.99075 36.0509L3.38539 35.5037L4.66484 35.085L5.45552 36.1813V37.5368ZM2.01595 37.2484L1.25958 37.0009V36.1995L3.23971 35.5512L2.85205 36.0889L2.01595 37.2484ZM0.0356969 32.0599L1.25958 31.6592V30.3623L2.01595 31.4115L3.23971 31.0109L2.98777 31.3605L2.48346 32.0599L2.98607 32.7564L3.23971 33.1087L2.01595 32.7078L1.25958 33.757V32.4603L0.0356969 32.0599ZM0.921882 29.74L-0.054297 28.3865L0.95938 26.9808L1.16959 26.6894V27.9858L2.39347 28.3865L1.16959 28.7871V30.0837L0.921882 29.74ZM0.0356969 24.7134L0.264897 24.6382L1.25958 24.3125V23.0162L2.01024 24.0568L2.01595 24.0651L2.84461 23.7937C2.95931 23.7562 3.09023 23.7131 3.23995 23.6642L2.48346 24.7134L3.23971 25.7621L2.01595 25.3614L1.37314 26.2528L1.25958 26.4104V25.1139L0.0356969 24.7134ZM-0.054297 21.04L0.413211 20.3916L1.16959 20.6394V22.7371L-0.054297 21.04ZM1.25958 20.6686L3.32983 21.3464L3.36528 21.3954L4.12051 22.443L3.41033 23.4279L3.32983 23.5394C3.22256 23.5746 2.51045 23.8078 2.18338 23.9149L2.13832 23.9296C2.11991 23.9356 2.10331 23.9408 2.08868 23.9456L2.05026 23.9583L1.25958 22.8619V20.6686ZM1.25958 19.7719L2.01595 19.5244L2.51502 20.2164L3.23971 21.2217L1.25958 20.5733V19.7719ZM1.58276 18.7697L2.05026 18.1214L2.96868 18.422L4.03052 18.7697L2.96868 19.1172L2.05026 19.4179L1.58276 18.7697ZM1.25958 17.7671V16.966L1.85906 16.7695L3.23971 16.3177L2.01595 18.0149L1.25958 17.7671ZM0.0356969 12.826L1.25958 12.4255V11.1288L2.01595 12.1777L3.23971 11.7774L2.48346 12.826L2.86656 13.3575L3.23971 13.8748L2.01595 13.4747L1.25958 14.5232V13.2269L0.0356969 12.826ZM-0.054297 9.1529L0.72954 8.06569L1.16959 7.45572V8.75206L2.39347 9.1529L1.16959 9.55344V10.8498L-0.054297 9.1529ZM0.0356969 5.47951L1.25958 5.07867V3.78233L2.01595 4.83119L3.23995 4.43064L2.48346 5.47951L3.23971 6.52838L2.01595 6.12783L1.25958 7.17669V5.88007L0.0356969 5.47951ZM-0.054297 1.80612L0.413211 1.1581L1.16959 1.40557V3.5033L-0.054297 1.80612ZM1.25958 1.43506L3.32983 2.11258L4.12051 3.20922L3.32983 4.30587L2.05026 4.72471L1.25958 3.62807V1.43506ZM1.25958 0.538395L2.01595 0.290928L2.51502 0.982891L3.23971 1.98811L1.25958 1.33979V0.538395ZM2.57987 0.105988L4.17619 -0.416378L5.45552 0.00245808V1.35779L4.66484 2.45444C4.47856 2.39368 3.51177 2.07689 3.38539 2.0356L2.10583 0.261431L2.57987 0.105988ZM5.54555 1.38728L6.82511 -0.386885L8.10456 1.38728V2.74291L6.82511 3.16144L5.54555 2.74291V1.38728ZM8.19455 2.80867V1.51205L8.95077 2.56121L9.42446 2.40606L10.1748 2.16037L9.41847 3.20922L10.1748 4.25809L8.95077 3.85754L8.19455 4.90641V3.60978L6.97067 3.20922L8.19455 2.80867ZM8.19455 0.00245808L9.474 -0.416378L10.585 -0.0526984L11.5443 0.261431L10.2648 2.0356C10.1384 2.07689 9.17173 2.39368 8.98534 2.45444L8.19455 1.35779V0.00245808ZM11.6342 0.290928L12.3906 0.538395V1.33979L11.8072 1.53063L10.4104 1.98811L11.6342 0.290928ZM12.4805 3.65756L13.76 1.8834L15.0395 3.65756V5.01289L13.76 5.43173L13.2919 5.27865L12.4805 5.01289V3.65756ZM12.4805 1.40557L13.237 1.1581L13.7045 1.80612L12.9528 2.8485L12.4805 3.5033V1.40557ZM14.2832 1.1581L15.0395 1.40557V3.5033L13.8157 1.80612L14.2832 1.1581ZM15.1295 5.07867V3.78233L15.8859 4.83119L17.1097 4.43064L16.3533 5.47951L17.1097 6.52838L15.8859 6.12783L15.1295 7.17669V5.88007L13.9056 5.47951L15.1295 5.07867ZM15.1295 1.43506L17.1999 2.11258L17.9903 3.20922L17.1999 4.30587L15.9203 4.72471L15.1295 3.62807V1.43506ZM15.1295 0.538395L15.8859 0.290928L16.3851 0.983183L17.1097 1.98811L15.1295 1.33979V0.538395ZM16.935 -0.0526984L18.046 -0.416378L19.3256 0.00245808V1.35808L18.5346 2.45444C18.3484 2.39368 17.3817 2.07689 17.2552 2.0356L15.9759 0.261431L16.935 -0.0526984ZM19.4155 1.38728L20.6949 -0.386885L21.9742 1.38728V2.74291L20.6949 3.16144L19.4155 2.74291V1.38728ZM22.0644 2.80867V1.51205L22.8209 2.56121L23.0583 2.48334L24.0449 2.16037L23.2884 3.20922L24.0449 4.25809L22.8209 3.85754L22.0644 4.90641V3.60978L20.8404 3.20922L22.0644 2.80867ZM22.0644 0.00245808L23.3438 -0.416378L24.4249 -0.0624313L25.4142 0.261431L24.1345 2.0356C24.0084 2.07689 23.0416 2.39368 22.8551 2.45444L22.0644 1.35779V0.00245808ZM25.5041 0.290928L26.2605 0.538395V1.33979L25.677 1.53063L24.28 1.98811L25.5041 0.290928ZM26.823 2.8485L26.3507 3.5033V1.40557L27.1069 1.1581L26.823 2.8485ZM26.3507 31.5932V30.2376L26.4236 30.1368L26.3507 31.5932ZM26.3507 30.0837V28.7871L25.1267 28.3865L26.3507 27.9858V26.6894L26.6271 27.0726L26.3507 30.0837ZM23.4998 29.9288L22.911 29.1118L23.9 28.7881L24.9811 28.434L26.2605 28.8532V30.2084L25.4698 31.305L24.1904 30.8863L23.4998 29.9288ZM22.8551 33.575L22.0644 32.4786V30.2857L23.4348 30.7341L24.1345 30.9632L24.9252 32.0599L24.1345 33.1561L22.8551 33.575ZM19.4155 32.5082L19.6275 32.2144L20.6949 30.7337L21.7629 32.2144L21.9742 32.5082V33.8635L20.6949 34.2823L19.4155 33.8635V32.5082ZM20.6396 30.6564L20.1003 31.4044L19.4155 32.3536V30.2561L20.172 30.0085L20.6396 30.6564ZM21.9742 30.2559V32.3536L21.7269 32.0103L20.7508 30.6564L21.218 30.0085L21.9742 30.2559ZM18.6248 29.0642L19.1137 28.3865L18.6248 27.7087L19.4155 27.4498V26.6123L20.2063 26.871L20.6949 26.1933L21.1838 26.871L21.9745 26.6123V27.4498L22.7653 27.7087L22.2767 28.3865L22.7653 29.0642L21.9745 29.3229V30.1608L21.1838 29.902L20.6949 30.5798L20.2063 29.902L19.4155 30.1608V29.3229L18.6248 29.0642ZM17.3454 30.8384L17.9988 29.9321L18.5692 29.1412L19.3256 29.3889V30.1901L17.3454 30.8384ZM16.4645 32.0599L17.2552 30.9632L19.3256 30.2857V32.4786L18.5346 33.5753L17.2552 33.1561L16.4645 32.0599ZM15.1295 33.9112L15.1886 33.829L15.9203 32.8147L17.0562 33.1866L17.1999 33.2335L17.9903 34.3299L17.1999 35.4266L15.1295 36.1042V33.9112ZM15.1295 31.6592V30.3623L15.2867 30.5806L15.8802 31.4036L15.8859 31.4115L17.1097 31.0109L16.3533 32.0599L17.1097 33.1087L15.8859 32.7078L15.1295 33.757V32.4603L13.9056 32.0599L15.1295 31.6592ZM12.4805 30.2376L12.8001 29.7946L13.76 28.4637L15.0395 30.2376V31.5932L13.76 32.012L12.4805 31.5932V30.2376ZM11.2568 28.3865L12.4805 27.9858V26.6894L13.7045 28.3865L13.1688 29.1291L12.4805 30.0837V28.7871L11.2568 28.3865ZM9.64242 29.9459L9.04087 29.1118L10.0299 28.7881L11.1111 28.434L12.3906 28.8532V30.2084L11.5998 31.305L10.3203 30.8863L9.64242 29.9459ZM8.98534 33.575L8.19455 32.4786V30.2857L10.2648 30.9632L11.0555 32.0599L10.2648 33.1561L8.98534 33.575ZM5.54563 32.5082L5.89021 32.0303L6.82511 30.7337L7.82837 32.1251L8.10456 32.5082V33.8635L6.82511 34.2823L6.46955 34.1661L5.54563 33.8635V32.5082ZM6.7694 30.6564L6.23614 31.3962L5.54563 32.3536V30.2561L6.30201 30.0085L6.7694 30.6564ZM8.10456 30.2561V32.3539L7.80252 31.9348L6.88068 30.6564L7.3483 30.0085L8.10456 30.2561ZM4.75486 29.0642L5.24363 28.3865L4.75486 27.7087L5.54563 27.4498V26.6123L6.33632 26.871L6.82511 26.1933L7.31376 26.871L8.10456 26.6123V27.4498L8.89534 27.7087L8.40657 28.3865L8.89534 29.0642L8.10456 29.3229V30.1608L7.31376 29.902L6.82511 30.5798L6.33632 29.902L5.54563 30.1608V29.3229L4.75486 29.0642ZM3.4753 30.8384L4.1403 29.9164L4.69926 29.1412L5.45552 29.3889V30.1901L3.4753 30.8384ZM3.62018 28.7881L4.60915 29.1118L4.02021 29.9288L3.32983 30.8863L2.05026 31.305L1.25958 30.2084V28.8532L2.53903 28.434L3.62018 28.7881ZM4.60915 27.6612L3.62018 27.985L2.53903 28.3389L1.25958 27.9199V26.5646L2.05026 25.468L3.2252 25.8525L3.32983 25.8869L4.60915 27.6612ZM5.13235 28.3865L4.66484 29.0348L3.74631 28.7341L2.68474 28.3865L3.74631 28.0388L4.66484 27.738L5.13235 28.3865ZM4.20009 26.9395L3.4753 25.9345L5.45552 26.5828V27.3841L4.69926 27.6315L4.20009 26.9395ZM4.66484 23.1979L5.45552 24.2942V26.4874L3.38539 25.8097L2.59462 24.7134L3.38539 23.6167L4.66484 23.1979ZM4.69926 21.7947L5.45552 20.7459V22.0422L6.67952 22.443L5.45552 22.8436V24.1403L4.69926 23.0911L3.4753 23.4919L4.23179 22.443L3.71179 21.7219L3.4753 21.3942L4.69926 21.7947ZM5.45552 19.2363V20.5917L4.66484 21.688L3.38539 21.2691L2.10583 19.495L3.09504 19.1711L4.17608 18.8175L5.45552 19.2363ZM3.38539 16.2702L4.66484 15.8511L5.45552 16.9478V18.3031L4.17608 18.7222L3.09504 18.368L2.10583 18.0444L3.38539 16.2702ZM4.12051 15.0963L3.32983 16.1929L1.25958 16.8708V14.6774L2.05026 13.5808L3.32983 13.9999L4.12051 15.0963ZM3.38539 11.7297L5.45552 11.0518V13.2448L4.66484 14.3414L3.38539 13.9227L3.12179 13.5572L2.59462 12.826L3.38539 11.7297ZM3.62018 9.55432L4.60915 9.87819L3.32983 11.6524L2.05026 12.0712L1.25958 10.9748V9.61921L2.53903 9.20039L3.62018 9.55432ZM4.60915 8.42761L3.62018 8.75117L2.53903 9.10512L1.25958 8.68628V7.33096L2.05026 6.23431L3.32983 6.65314L4.60915 8.42761ZM4.66484 3.96402L5.45552 5.06067V7.25397L3.38539 6.57616L2.59462 5.47951L3.38539 4.38286L4.66484 3.96402ZM8.10456 5.03118L6.82511 6.80564L5.54555 5.03118V3.67585L6.82511 3.25701L8.10456 3.67585V5.03118ZM6.88068 6.88263L7.6646 5.79571L8.10456 5.18544V7.28317L7.34806 7.53093L6.88068 6.88263ZM5.54555 7.28317V5.18544L6.7694 6.88263L6.30201 7.53093L5.54555 7.28317ZM8.89524 8.47509L8.40657 9.1529L8.89524 9.83045L8.10456 10.0894V10.9271L7.31376 10.6681L6.82511 11.3459L6.33632 10.6681L5.54555 10.9271V10.0894L4.75486 9.83045L5.24363 9.1529L4.75486 8.47509L5.54555 8.21612V7.37845L6.33632 7.63741L6.82511 6.9596L7.31376 7.63741L8.10456 7.37845V8.21612L8.89524 8.47509ZM8.79401 7.15281L10.1748 6.70093L8.95077 8.3981L8.19455 8.15034V7.34894L8.79401 7.15281ZM11.0555 5.47951L10.2648 6.57616L8.19455 7.25397V5.06067L8.98534 3.96402L10.2648 4.38286L11.0555 5.47951ZM12.3906 3.62807L11.5998 4.72471L10.3203 4.30587L9.52972 3.20922L10.3203 2.11258L12.3906 1.43506V3.62807ZM12.3906 5.88007V7.17669L11.6342 6.12783L10.4104 6.52838L11.1667 5.47951L10.4104 4.43064L11.6342 4.83119L12.3906 3.78233V5.07867L13.6144 5.47951L12.3906 5.88007ZM15.0395 7.30145L13.76 9.07562L12.4805 7.30145V5.94584L13.76 5.527L15.0395 5.94584V7.30145ZM16.2634 9.1529L15.0395 9.55344V10.8498L13.8157 9.1529L14.5994 8.06569L15.0395 7.45572V8.75206L16.2634 9.1529ZM18.4793 8.42761L17.49 8.75117L16.4089 9.10512L15.1295 8.68628V7.33096L15.9203 6.23431L17.1999 6.65314L18.4793 8.42761ZM18.5346 3.96402L19.3256 5.06067V7.25397L17.2552 6.57616L16.4645 5.47951L17.2552 4.38286L18.5346 3.96402ZM21.9742 5.03118L20.6949 6.80564L19.4155 5.03118V3.67585L20.6949 3.25701L20.9349 3.33547L21.9742 3.67585V5.03118ZM20.7508 6.88263L21.5345 5.79571L21.9742 5.18544V7.28317L21.218 7.53093L20.7508 6.88263ZM19.4155 7.28317V5.18544L20.6396 6.88263L20.172 7.53093L19.4155 7.28317ZM22.7653 8.47509L22.2767 9.1529L22.7653 9.83045L21.9742 10.0894V10.9271L21.1838 10.6681L20.6949 11.3459L20.2063 10.6681L19.4155 10.9271V10.0894L18.6248 9.83045L19.1137 9.1529L18.6248 8.47509L19.4155 8.21612V7.37845L20.2063 7.63741L20.6949 6.9596L21.1838 7.63741L21.9742 7.37845V8.21612L22.7653 8.47509ZM24.0449 6.70093L23.2556 7.79493L22.8209 8.3981L22.0644 8.15034V7.34894L24.0449 6.70093ZM24.9252 5.47951L24.1345 6.57616L23.0537 6.93011L22.0644 7.25397V5.06067L22.8551 3.96402L24.1345 4.38286L24.9252 5.47951ZM26.2605 3.62807L25.4698 4.72471L24.1904 4.30587L23.3997 3.20922L24.1904 2.11258L26.2605 1.43506V3.62807ZM26.2605 5.88007V7.17669L25.5041 6.12783L24.2803 6.52838L25.0365 5.47951L24.2803 4.43064L25.5041 4.83119L26.2605 3.78233V5.07867V5.88007ZM26.2605 25.1139V26.4104L25.5041 25.3614L24.2803 25.7621L25.0365 24.7134L24.2803 23.6642L25.5041 24.0651L26.2605 23.0162V24.3125V25.1139ZM23.9 27.985L22.911 27.6612L24.1904 25.8869L24.4152 25.8133L25.4698 25.468L26.2605 26.5646V27.9199L24.9811 28.3389L23.9 27.985ZM22.0644 26.5828L23.234 26.1999L24.0449 25.9345L22.8209 27.6315L22.0644 27.3841V26.5828ZM20.8404 22.443L22.0644 22.0422V20.7459L22.8209 21.7947L24.0449 21.3942L23.2884 22.443L24.0449 23.4919L22.8209 23.0911L22.0644 24.14V22.8436L20.8404 22.443ZM19.4155 24.4189L20.6396 26.1163L20.172 26.7645L19.4155 26.5168V24.4189ZM18.5692 23.0911L17.3454 23.4919L18.1016 22.443L17.3454 21.3942L18.5692 21.7947L18.575 21.7865L19.3256 20.7459V22.0422L20.5494 22.443L19.3256 22.8436V24.1403L18.5692 23.0911ZM17.2552 25.8097L16.4645 24.7134L17.2552 23.6167L18.5346 23.1979L19.3256 24.2942V26.4874L17.2552 25.8097ZM18.0697 26.939L17.3454 25.9345L19.3256 26.5828V27.3841L18.5692 27.6318L18.0697 26.939ZM17.6165 28.7341L16.5547 28.3865L17.6165 28.0388L18.5346 27.738L19.0021 28.3865L18.5346 29.0348L17.6165 28.7341ZM15.1295 28.8532L16.4089 28.434L17.49 28.7881L18.4793 29.1118L17.8776 29.9459L17.1999 30.8863C17.144 30.9042 16.9262 30.9755 16.6832 31.0552L16.057 31.2599C15.997 31.28 15.949 31.2953 15.9203 31.305L15.1295 30.2084V28.8532ZM14.5571 27.3582L15.0395 26.6894V27.9858L16.2634 28.3865L15.0395 28.7871V30.0837L14.9422 29.9488L13.8157 28.3865L14.5571 27.3582ZM12.4805 25.1796L13.76 24.7608L15.0395 25.1796V26.5351L13.76 28.3093L12.4805 26.5351V25.1796ZM11.6342 25.3614L10.4104 25.7621L11.1667 24.7134L10.4104 23.6642L11.6342 24.0651L12.3906 23.0162V24.3125L13.6144 24.7134L12.3906 25.1139V26.4104L11.6342 25.3614ZM10.0299 27.985L9.04087 27.6612L10.3203 25.8869L10.5117 25.8242L11.5998 25.468L12.1026 26.1652L12.3906 26.5646V27.9199L11.1111 28.3389L10.0299 27.985ZM8.19455 26.5828L8.8145 26.3798L10.1748 25.9345L8.95106 27.6315L8.19455 27.3841V26.5828ZM6.97067 22.443L8.19455 22.0422V20.7459L8.25755 20.8332L8.95077 21.7947L10.1748 21.3942L9.41847 22.443L10.1748 23.4919L8.95106 23.0911L8.19455 24.1403V22.8436L6.97067 22.443ZM5.54563 20.6208L6.29858 19.5767L6.82511 18.8467L8.10456 20.6208V21.9764L6.82511 22.3953L5.54563 21.9764V20.6208ZM8.10456 13.1201L6.88068 11.4228L7.34806 10.7746L8.10456 11.0224V13.1201ZM8.95077 14.4479L10.1748 14.0474L9.41847 15.0963L10.1748 16.1452L8.95077 15.7446L8.19455 16.7935V15.4971L6.97067 15.0963L8.19455 14.6957V13.3991L8.95077 14.4479ZM10.2648 11.7297L11.0555 12.826L10.2647 13.9227L8.98534 14.3414L8.19455 13.2448V11.0518L10.2648 11.7297ZM9.44995 10.6L10.1748 11.6046L8.19455 10.9565V10.1552L8.95077 9.90772L9.44995 10.6ZM9.92218 8.81134L10.9655 9.1529L9.92218 9.49449L8.98534 9.80093L8.51785 9.1529L8.98534 8.50459L9.92218 8.81134ZM12.3906 8.68628L11.1111 9.10512L10.0558 8.75973L9.04087 8.42761L10.3203 6.65314L11.5998 6.23431L12.3906 7.33096V8.68628ZM12.9205 10.2398L12.4805 10.8498V9.55344L11.2568 9.1529L12.4805 8.75206V7.45572L13.7045 9.1529L12.9205 10.2398ZM15.0395 12.3597L13.76 12.7785L12.4805 12.3597V11.0044L13.76 9.22988L15.0395 11.0044V12.3597ZM15.8859 12.1777L17.1097 11.7774L16.3533 12.826L17.1097 13.8748L15.8859 13.4747L15.1295 14.5232V13.2269L13.9056 12.826L15.1295 12.4255V11.1288L15.8859 12.1777ZM17.49 9.55432L18.4793 9.87819L17.1999 11.6524L15.9203 12.0712L15.2285 11.112L15.1295 10.9748V9.61921L16.4089 9.20039L17.49 9.55432ZM19.3256 10.9565L18.7182 11.1554L17.3454 11.6046L18.5692 9.90772L19.3256 10.1552V10.9565ZM20.5494 15.0963L19.3256 15.4971V16.7935L18.5692 15.7446L17.3454 16.1455L18.1016 15.0963L17.3454 14.0474L18.5692 14.4479L19.3256 13.3991V14.6957L20.5494 15.0963ZM21.9742 13.1201L20.7508 11.4228L21.218 10.7746L21.9742 11.0224V13.1201ZM22.8057 14.4273L22.8209 14.4479L23.0404 14.3763C23.0466 14.3743 23.0525 14.3721 23.0586 14.3701L24.0449 14.0474L23.2884 15.0963L24.0449 16.1452L22.8209 15.7446L22.0644 16.7935V15.4971L20.8404 15.0963L22.0644 14.6957V13.3991L22.8057 14.4273ZM24.1345 11.7297L24.9252 12.826L24.3752 13.5893L24.1345 13.9227C24.0084 13.964 23.0416 14.2804 22.8551 14.3414L22.1634 13.3823L22.0644 13.2448V11.0518L24.1345 11.7297ZM23.1221 10.3253L24.0449 11.6046L23.7173 11.4978L22.0644 10.9565V10.1552L22.8209 9.90772L23.1221 10.3253ZM23.7738 8.80515L24.8357 9.1529L23.7738 9.50034L22.8551 9.80093L22.3876 9.1529L22.8551 8.50459L23.7738 8.80515ZM26.3507 10.8498V9.55344L25.1267 9.1529L26.3507 8.75206V7.45572L27.0838 8.47244L26.3507 10.8498ZM26.7907 22.1269L26.3507 22.7371V20.6394L27.1069 20.3916L26.7907 22.1269ZM26.3507 20.5438V19.7062L25.5597 19.4475L26.0483 18.7697L25.5597 18.0918L26.3507 17.8332V16.9955V20.5438ZM25.661 20.7695L24.28 21.2217L25.5041 19.5244L26.2605 19.7719V20.5733L25.661 20.7695ZM22.0644 19.2363L23.3438 18.8175L24.4249 19.1711L25.4142 19.495L24.1345 21.2691L22.8551 21.688L22.0644 20.5917V19.2363ZM25.4142 18.0444L24.4249 18.368L23.3438 18.7222L22.0644 18.3031V16.9478L22.8551 15.8511L24.1345 16.2702L25.4142 18.0444ZM25.937 18.7697L25.4698 19.4179L24.5514 19.1172L23.4896 18.7697L24.5514 18.422L25.4698 18.1214L25.937 18.7697ZM25.0052 17.3226L24.2803 16.3177L26.2605 16.966V17.7671L25.5041 18.0149L25.0052 17.3226ZM25.4698 13.5808L26.2605 14.6774V16.8708L24.1904 16.1929L23.3997 15.0963L24.1904 13.9999L25.4698 13.5808ZM27.1069 17.1477L26.3507 16.8999V14.8022L27.1069 17.1477ZM24.1904 11.6524L22.911 9.87819L23.9 9.55432L24.9811 9.20039L26.2605 9.61921V10.9745L25.4698 12.0712L24.1904 11.6524ZM26.2605 13.2269V14.5232L25.5041 13.4747L24.28 13.8748L25.0365 12.826L24.2803 11.7774L25.5041 12.1777L26.2605 11.1291V12.4255V13.2269ZM20.7508 18.7697L21.5345 17.6824L21.9742 17.0725V18.3691L23.1982 18.7697L21.9742 19.1703V20.4668L20.7508 18.7697ZM19.4155 20.6208L20.6949 18.8467L21.9742 20.6208V21.9764L20.6949 22.3953L19.4155 21.9764V20.6208ZM19.4155 16.9182V15.5629L20.6949 15.144L21.9742 15.5629V16.9182L20.6949 18.6927L19.4155 16.9182ZM15.9758 19.495L16.9909 19.1629L18.046 18.8175L19.3256 19.2363V20.5917L18.5346 21.688C18.3484 21.6272 17.3815 21.3104 17.2552 21.2691L15.9758 19.495ZM15.9203 23.9583L15.1295 22.8619V20.6686L17.1999 21.3464L17.9903 22.443L17.1999 23.5394L15.9203 23.9583ZM12.4805 22.8911L13.76 21.1169L15.0395 22.8911V24.2468L14.3479 24.4732L13.76 24.6656L12.4805 24.2468V22.8911ZM12.4805 20.6394L13.237 20.3916L13.7045 21.04L12.9205 22.1269L12.4805 22.7371V20.6394ZM15.0395 20.6394V22.7371L13.8157 21.04L13.9571 20.8438L14.2832 20.3916L15.0395 20.6394ZM15.729 16.7695L17.1097 16.3177L15.8859 18.0149L15.1295 17.7671V16.966L15.729 16.7695ZM16.9909 18.3765L15.9758 18.0444L17.2552 16.2702L18.5346 15.8511L19.3256 16.9478V18.3031L18.046 18.7222L16.9909 18.3765ZM16.3848 20.2164L17.1097 21.2217L15.1295 20.5733V19.7719L15.8859 19.5244L16.3848 20.2164ZM15.4527 18.7697L15.9202 18.1214L16.8574 18.4281L17.9005 18.7697L16.8574 19.1112L15.9202 19.4179L15.4527 18.7697ZM16.4645 12.826L17.2552 11.7297L19.3256 11.0518V13.2448L18.5346 14.3414L17.2552 13.9227L16.4645 12.826ZM17.9903 15.0963L17.1999 16.1929L15.1295 16.8708V14.6774L15.9202 13.5808L17.1999 13.9999L17.9903 15.0963ZM11.6897 19.4475L12.1785 18.7697L11.6897 18.0918L12.4805 17.8332V16.9955L13.2713 17.2542L13.76 16.5763L14.2488 17.2542L14.9119 17.0371L15.0395 16.9955V17.8332L15.8302 18.0918L15.3416 18.7697L15.8302 19.4475L15.0395 19.7062V20.5438L14.9119 20.5022L14.2489 20.2851L13.76 20.9627L13.2713 20.2851L12.4805 20.5438V19.7062L11.6897 19.4475ZM11.7911 20.7695L10.4104 21.2217L11.6342 19.5244L12.3906 19.7719V20.5733L11.7911 20.7695ZM8.19455 19.2363L9.474 18.8175L10.5551 19.1711L11.5443 19.495L10.2647 21.2691L10.0287 21.3464L8.98534 21.688L8.19455 20.5917V19.2363ZM11.5443 18.0444L10.5551 18.368L9.474 18.7222L8.19455 18.3031V16.9478L8.98534 15.8511L10.2648 16.2702L11.5443 18.0444ZM12.0672 18.7697L11.5998 19.4179L10.6814 19.1172L9.61963 18.7697L10.6814 18.422L11.5998 18.1214L12.0672 18.7697ZM11.135 17.3226L10.4104 16.3177L12.3906 16.966V17.7671L11.6342 18.0149L11.135 17.3226ZM11.5998 13.5808L12.3906 14.6774V16.8708L10.3203 16.1929L9.52972 15.0963L10.3203 13.9999L11.5998 13.5808ZM13.7045 16.4994L13.237 17.1477L12.4805 16.8999V14.8022L13.7045 16.4994ZM15.0395 14.8022V16.8999L14.2832 17.1477L13.9571 16.6956L13.8157 16.4994L14.5994 15.4125L15.0395 14.8022ZM13.76 16.4224L12.4805 14.648V13.2926L13.76 12.8738L15.0395 13.2926V14.648L13.76 16.4224ZM10.3203 11.6524L9.04087 9.87819L10.0558 9.54574L11.1111 9.20039L12.3906 9.61921V10.9748L11.5998 12.0712L10.3203 11.6524ZM11.6342 12.1777L12.3906 11.1288V12.4255L13.6144 12.826L12.3906 13.2269V14.5232L11.6342 13.4747L10.4104 13.8748L11.1667 12.826L10.4104 11.7774L11.6342 12.1777ZM6.82511 18.6927L5.54563 16.9182V15.5629L6.3569 15.2972L6.82511 15.144L8.10456 15.5629V16.9182L6.82511 18.6927ZM8.10456 17.0725V18.3691L9.32837 18.7697L8.10456 19.1703V20.4668L6.88068 18.7697L8.10456 17.0725ZM11.0555 24.7134L10.2648 25.8097L8.19455 26.4874V24.2942L8.98534 23.1979L10.2648 23.6167L11.0555 24.7134ZM9.52972 22.443L10.3203 21.3464L12.3906 20.6686V22.8619L11.5998 23.9583L10.3203 23.5394L9.52972 22.443ZM17.1999 25.8869L18.4793 27.6612L17.49 27.985L16.4089 28.3389L15.1295 27.9199V26.5646L15.9203 25.468L17.0082 25.8242L17.1999 25.8869ZM15.8859 25.3614L15.1295 26.4104V25.1139L13.9056 24.7134L14.0926 24.652L15.1295 24.3125V23.0162L15.1924 23.1032L15.8859 24.0651L17.1097 23.6642L16.3533 24.7134L17.1097 25.7621L15.8859 25.3614ZM18.1915 18.7697L19.4155 18.3691V17.0725L20.1486 18.0889L20.6396 18.7697L19.8555 19.8566L19.4155 20.4668V19.1703L18.1915 18.7697ZM24.9252 24.7134L24.1345 25.8097L23.2214 26.1087L22.0644 26.4874V24.2942L22.8551 23.1979L24.1345 23.6167L24.9252 24.7134ZM23.3997 22.443L24.1904 21.3464L26.2605 20.6686V22.8619L25.4698 23.9583L24.1904 23.5394L23.3997 22.443ZM26.2605 7.33096V8.68628L24.9811 9.10512L23.9 8.75117L22.911 8.42761L24.1904 6.65314L25.4698 6.23431L26.2605 7.33096ZM19.4155 13.1201V11.0224L20.172 10.7746L20.6396 11.4228L19.8878 12.4653L19.4155 13.1201ZM20.6949 11.5002L21.9742 13.2743V14.6297L20.6949 15.0488L19.4155 14.6297V13.2743L20.6949 11.5002ZM18.07 7.70585L17.3454 6.70093L19.3256 7.34894V8.15034L18.5692 8.3981L18.07 7.70585ZM19.0021 9.1529L18.5346 9.80093L17.6165 9.50034L16.5547 9.1529L17.6165 8.80515L18.5346 8.50459L19.0021 9.1529ZM5.54555 13.1201V11.0224L6.30201 10.7746L6.7694 11.4228L5.98548 12.5101L5.54555 13.1201ZM6.82511 11.5002L8.10456 13.2743V14.6297L6.82511 15.0488L5.54555 14.6297V13.2743L6.82511 11.5002ZM4.69926 9.90772L5.45552 10.1552V10.9565L4.8356 11.1595L3.4753 11.6046L4.69926 9.90772ZM4.20009 7.70585L3.4753 6.70093L5.45552 7.34894V8.15034L4.69926 8.3981L4.20009 7.70585ZM5.13235 9.1529L4.66484 9.80093L3.74631 9.50034L2.68474 9.1529L3.74631 8.80515L4.66484 8.50459L5.13235 9.1529ZM6.67952 15.0963L5.45552 15.4971V16.7935L4.69926 15.7446L3.4753 16.1455L4.23179 15.0963L3.4753 14.0474L4.69926 14.4479L5.45552 13.3991V14.6957L6.67952 15.0963ZM4.32179 18.7697L5.54555 18.3691V17.0725L6.7694 18.7697L5.54555 20.4668V19.1703L4.32179 18.7697ZM6.7694 26.1163L6.30201 26.7645L5.54563 26.5168V24.4189L6.7694 26.1163ZM8.10456 24.4189V26.5168L7.3483 26.7645L6.88068 26.1163L7.65192 25.0467L8.10456 24.4189ZM6.82511 26.0391L5.54563 24.2647V22.9094L6.82511 22.4906L8.10456 22.9094V24.2647L6.82511 26.0391ZM9.31021 29.6394L10.1748 30.8384L8.19455 30.1901V29.3889L8.95106 29.1412L9.31021 29.6394ZM8.51785 28.3865L8.98534 27.738L9.90374 28.0388L10.9655 28.3865L9.90374 28.7341L8.98534 29.0348L8.51785 28.3865ZM21.9742 24.4189V26.5168L21.218 26.7645L20.7508 26.1163L21.5217 25.0467L21.9742 24.4189ZM20.6949 26.0391L19.4155 24.2647V22.9094L20.6949 22.4906L21.9745 22.9094V24.2647L20.6949 26.0391ZM23.1903 29.6533L24.0449 30.8384L22.0644 30.1901V29.3889L22.8209 29.1412L23.1903 29.6533ZM22.3876 28.3865L22.8551 27.738L23.7738 28.0388L24.8357 28.3865L23.7738 28.7341L22.8551 29.0348L22.3876 28.3865ZM20.1316 3.07267L20.5494 3.20922L19.3256 3.60978V4.90641L18.5692 3.85754L17.3454 4.25809L18.1016 3.20922L17.3454 2.16037L17.9582 2.36093L18.5692 2.56121L19.3256 1.51205V2.80867L20.1316 3.07267ZM6.67952 3.20922L5.45552 3.60978V4.90641L4.69926 3.85754L3.4753 4.25809L4.23179 3.20922L3.4753 2.16037L4.03576 2.34383L4.69926 2.56121L5.45552 1.51205V2.80867L6.67952 3.20922ZM4.12051 34.3299L3.32983 35.4266L1.25958 36.1042V33.9112L2.05026 32.8147L3.32983 33.2335L4.12051 34.3299ZM2.59462 32.0599L3.38539 30.9632L5.45552 30.2857V32.4784L4.66484 33.5753L3.38539 33.1561L2.59462 32.0599ZM7.09705 34.3713L6.97067 34.3299L8.19455 33.9293V32.633L8.31074 32.794L8.95077 33.6818L9.73619 33.4246L10.1748 33.2813L9.41847 34.3299L10.1748 35.3787L8.95077 34.9785L8.19455 36.0271V34.7308L7.09705 34.3713ZM20.8404 34.3299L22.0644 33.9293V32.633L22.8209 33.6818L24.0449 33.2813L23.2884 34.3299L24.0449 35.3787L22.8209 34.9785L22.0644 36.0271V34.7308L20.8404 34.3299ZM1.16959 36.1338L0.413211 36.3815L-0.054297 35.7329L0.48479 34.9855L1.16959 34.0358V36.1338ZM1.16959 16.8999L0.413211 17.1477L-0.054297 16.4994L0.72954 15.4125L1.16959 14.8022V16.8999ZM26.3507 1.3103V0.472621L25.5597 0.213648L25.6958 0.0248742L26.0483 -0.463867H25.937L25.4698 0.184152L24.5514 -0.116411L23.4896 -0.463867H23.1982L21.9742 -0.063316V1.23331L20.7508 -0.463867H20.6396L20.2894 0.0210411L19.4155 1.23331V-0.063316L18.1915 -0.463867H17.9005L16.8167 -0.109037L15.9203 0.184152L15.4527 -0.463867H15.3416L15.8302 0.213648L15.0395 0.472621V1.3103L14.2489 1.05132L13.76 1.72913L13.2713 1.05132L12.4805 1.3103V0.472621L11.6897 0.213648L12.1785 -0.463867H12.0672L11.5998 0.184152L10.7034 -0.109037L9.61963 -0.463867H9.32837L8.10456 -0.063316V1.23331L7.82814 0.849872L6.88068 -0.463867H6.7694L6.23169 0.281781L5.54555 1.23331V-0.063316L4.32179 -0.463867H4.03052L2.05026 0.184152L1.58276 -0.463867H1.4716L1.96038 0.213648L1.16959 0.472621V1.3103L0.378783 1.05132L-0.109863 1.72913V1.8834L1.16959 3.65756V5.01289L-0.109863 5.43173V5.527L1.16959 5.94584V7.30145L-0.109863 9.07562V9.22988L1.16959 11.0044V12.3597L-0.109863 12.7785V12.8738L1.16959 13.2926V14.648L-0.109863 16.4224V16.5763L0.378783 17.2542L1.16959 16.9955V17.8332L1.82165 18.0464L1.96038 18.0918L1.4716 18.7697L1.96038 19.4475L1.16959 19.7062V20.5438L0.378783 20.2851L-0.109863 20.9627V21.1169L1.16959 22.8911V24.2468L-0.109863 24.6656V24.7608L1.16959 25.1796V26.5351L1.03521 26.7215L-0.109863 28.3093V28.4637L0.971268 29.963L1.16959 30.2376V31.5932L-0.109863 32.012V32.1073L0.0223179 32.1507L1.16959 32.5262V33.8818L0.957681 34.1753L-0.109863 35.6559V35.8102L0.378783 36.488L1.16959 36.229V37.0668L1.96038 37.3256L1.4716 38.0035H1.58276L2.05026 37.3549L2.99921 37.6655L4.03052 38.0035H4.32179L5.54555 37.6026V36.3063L6.7694 38.0035H6.88068L8.10456 36.3063V37.6026L9.32837 38.0035H9.61963L10.6511 37.6655L11.5998 37.3549L12.0672 38.0035H12.1785L11.6899 37.3256L12.4805 37.0668V36.229L13.2713 36.488L13.76 35.8102L14.2489 36.488L15.0395 36.229V37.0668L15.8302 37.3256L15.3416 38.0035H15.4527L15.9203 37.3549L17.464 37.8605L17.9005 38.0035H18.1915L19.4155 37.6026V36.3063L19.5127 36.4408L20.6396 38.0035H20.7508L21.9742 36.3063V37.6026L23.1982 38.0035H23.4896L24.521 37.6655L25.4698 37.3549L25.937 38.0035H26.0483L25.5597 37.3256L26.3507 37.0668V36.229" fill="#FAF3E4"/>
</g>
<path d="M30.2154 7.46875V14.9332H22.666V22.3997H30.2154V29.8665H37.7648V22.3997V14.9352V14.9332V7.46875H30.2154Z" fill="#FFA800"/>
</svg>
